<svg width="70" height="70" viewBox="0 0 70 70" fill="none" xmlns="http://www.w3.org/2000/svg">
<circle cx="35" cy="35" r="33.5" stroke="#12606A" stroke-width="3"/>
<path fill-rule="evenodd" clip-rule="evenodd" d="M13.025 37.5799C12.6 36.8549 12.275 36.2549 12.05 35.8049C12.275 35.3549 12.6 34.7549 13.025 34.0299C13.95 32.4799 15.375 30.4049 17.275 28.3299C21.125 24.2049 26.925 20.1799 34.975 20.1799C42.375 20.1799 48.175 24.1549 52.225 28.3549C54.225 30.4299 55.75 32.5299 56.775 34.1049C57.25 34.8049 57.625 35.4299 57.875 35.8549C57.65 36.3049 57.325 36.8799 56.925 37.5799C56 39.1299 54.575 41.2049 52.675 43.2799C48.825 47.4049 43.025 51.4299 34.975 51.4299C26.925 51.4299 21.125 47.4049 17.275 43.2799C15.375 41.2049 13.95 39.1299 13.025 37.5799ZM61.7 36.5549C61.925 36.0299 61.9 35.4549 61.65 34.9549V34.9049C61.65 34.9049 61.575 34.8049 61.525 34.7299C61.45 34.5799 61.35 34.3799 61.2 34.1299C60.9 33.6299 60.475 32.9049 59.925 32.0549C58.8 30.3299 57.125 28.0549 54.925 25.7549C50.525 21.2049 43.825 16.4299 34.975 16.4299C25.525 16.4299 18.825 21.1549 14.55 25.7799C12.4 28.0799 10.825 30.3799 9.8 32.1049C9.3 32.9799 8.9 33.7049 8.65 34.2049C8.525 34.4799 8.425 34.6799 8.35 34.8299C8.325 34.9049 8.3 34.9549 8.275 35.0049V35.0549C8.17598 35.2926 8.125 35.5475 8.125 35.8049C8.125 36.0624 8.17598 36.3173 8.275 36.5549V36.6049C8.3 36.6549 8.325 36.7049 8.35 36.7799C8.425 36.9299 8.525 37.1299 8.65 37.4049C8.9 37.9049 9.3 38.6299 9.8 39.5049C10.825 41.2299 12.4 43.5299 14.55 45.8299C18.825 50.4549 25.525 55.1799 34.975 55.1799C44.425 55.1799 51.125 50.4549 55.4 45.8299C57.55 43.5299 59.125 41.2299 60.15 39.5049C60.65 38.6299 61.05 37.9049 61.3 37.4049C61.425 37.1299 61.525 36.9299 61.6 36.7799C61.625 36.7049 61.65 36.6549 61.675 36.6049V36.5549H61.7ZM38.45 28.2049L37.375 26.4799C37.1131 26.0828 36.7567 25.7569 36.3379 25.5314C35.919 25.3059 35.4507 25.1878 34.975 25.1878C34.4993 25.1878 34.031 25.3059 33.6121 25.5314C33.1933 25.7569 32.8369 26.0828 32.575 26.4799L31.5 28.2049C30.45 29.8549 29.025 31.2799 27.375 32.3299L25.65 33.4049C25.2529 33.6668 24.927 34.0232 24.7015 34.4421C24.476 34.8609 24.3579 35.3292 24.3579 35.8049C24.3579 36.2806 24.476 36.7489 24.7015 37.1678C24.927 37.5867 25.2529 37.943 25.65 38.2049L27.375 39.2799C29.025 40.3299 30.45 41.7549 31.5 43.4049L32.575 45.1299C33.7 46.8549 36.25 46.8549 37.375 45.1299L38.45 43.4049C39.5 41.7549 40.925 40.3299 42.575 39.2799L44.3 38.2049C46.025 37.0799 46.025 34.5299 44.3 33.4049L42.575 32.3299C40.925 31.2799 39.5 29.8549 38.45 28.2049ZM34.65 30.2049L34.975 29.7299L35.3 30.2049C36.65 32.3299 38.45 34.1299 40.575 35.4799L41.05 35.8049L40.575 36.1299C38.45 37.4799 36.65 39.2799 35.3 41.4049L34.975 41.8799L34.65 41.4049C33.3007 39.2803 31.4996 37.4793 29.375 36.1299L28.9 35.8049L29.375 35.4799C31.5 34.1299 33.3 32.3299 34.65 30.2049Z" fill="#12606A"/>
</svg>
