<svg width="70" height="70" viewBox="0 0 70 70" fill="none" xmlns="http://www.w3.org/2000/svg">
<circle cx="35" cy="35" r="33.5" stroke="#12606A" stroke-width="3"/>
<path d="M41.7708 50.0625C42.1875 50.0625 42.5521 49.9062 42.8646 49.5938C43.1771 49.2812 43.3333 48.9167 43.3333 48.5C43.3333 48.0833 43.1771 47.7188 42.8646 47.4063C42.5521 47.0938 42.1875 46.9375 41.7708 46.9375C41.3542 46.9375 40.9896 47.0938 40.6771 47.4063C40.3646 47.7188 40.2083 48.0833 40.2083 48.5C40.2083 48.9167 40.3646 49.2812 40.6771 49.5938C40.9896 49.9062 41.3542 50.0625 41.7708 50.0625ZM47.5 50.0625C47.9167 50.0625 48.2812 49.9062 48.5937 49.5938C48.9062 49.2812 49.0625 48.9167 49.0625 48.5C49.0625 48.0833 48.9062 47.7188 48.5937 47.4063C48.2812 47.0938 47.9167 46.9375 47.5 46.9375C47.0833 46.9375 46.7188 47.0938 46.4062 47.4063C46.0938 47.7188 45.9375 48.0833 45.9375 48.5C45.9375 48.9167 46.0938 49.2812 46.4062 49.5938C46.7188 49.9062 47.0833 50.0625 47.5 50.0625ZM53.2292 50.0625C53.6458 50.0625 54.0104 49.9062 54.3229 49.5938C54.6354 49.2812 54.7917 48.9167 54.7917 48.5C54.7917 48.0833 54.6354 47.7188 54.3229 47.4063C54.0104 47.0938 53.6458 46.9375 53.2292 46.9375C52.8125 46.9375 52.4479 47.0938 52.1354 47.4063C51.8229 47.7188 51.6667 48.0833 51.6667 48.5C51.6667 48.9167 51.8229 49.2812 52.1354 49.5938C52.4479 49.9062 52.8125 50.0625 53.2292 50.0625ZM20.4167 54.75C19.2708 54.75 18.2903 54.3424 17.475 53.5271C16.6597 52.7118 16.2514 51.7306 16.25 50.5833V21.4167C16.25 20.2708 16.6583 19.2903 17.475 18.475C18.2917 17.6597 19.2722 17.2514 20.4167 17.25H49.5833C50.7292 17.25 51.7104 17.6583 52.5271 18.475C53.3438 19.2917 53.7514 20.2722 53.75 21.4167V31.8333C53.75 32.4236 53.55 32.9188 53.15 33.3188C52.75 33.7188 52.2556 33.9181 51.6667 33.9167C51.0778 33.9153 50.5833 33.7153 50.1833 33.3167C49.7833 32.9181 49.5833 32.4236 49.5833 31.8333V21.4167H20.4167V50.5833H30.8333C31.4236 50.5833 31.9187 50.7833 32.3188 51.1833C32.7188 51.5833 32.9181 52.0778 32.9167 52.6667C32.9153 53.2556 32.7153 53.7507 32.3167 54.1521C31.9181 54.5535 31.4236 54.7528 30.8333 54.75H20.4167ZM20.4167 48.5V50.5833V21.4167V34.0729V33.9167V48.5ZM24.5833 44.3333C24.5833 44.9236 24.7833 45.4188 25.1833 45.8188C25.5833 46.2188 26.0778 46.4181 26.6667 46.4167H30.9896C31.5799 46.4167 32.075 46.2167 32.475 45.8167C32.875 45.4167 33.0743 44.9222 33.0729 44.3333C33.0715 43.7444 32.8722 43.25 32.475 42.85C32.0778 42.45 31.5826 42.25 30.9896 42.25H26.6667C26.0764 42.25 25.5819 42.45 25.1833 42.85C24.7847 43.25 24.5847 43.7444 24.5833 44.3333ZM24.5833 36C24.5833 36.5903 24.7833 37.0854 25.1833 37.4854C25.5833 37.8854 26.0778 38.0847 26.6667 38.0833H37.0833C37.6736 38.0833 38.1687 37.8833 38.5688 37.4833C38.9688 37.0833 39.1681 36.5889 39.1667 36C39.1653 35.4111 38.9653 34.9167 38.5667 34.5167C38.1681 34.1167 37.6736 33.9167 37.0833 33.9167H26.6667C26.0764 33.9167 25.5819 34.1167 25.1833 34.5167C24.7847 34.9167 24.5847 35.4111 24.5833 36ZM24.5833 27.6667C24.5833 28.2569 24.7833 28.7521 25.1833 29.1521C25.5833 29.5521 26.0778 29.7514 26.6667 29.75H43.3333C43.9236 29.75 44.4187 29.55 44.8187 29.15C45.2187 28.75 45.4181 28.2556 45.4167 27.6667C45.4153 27.0778 45.2153 26.5833 44.8167 26.1833C44.4181 25.7833 43.9236 25.5833 43.3333 25.5833H26.6667C26.0764 25.5833 25.5819 25.7833 25.1833 26.1833C24.7847 26.5833 24.5847 27.0778 24.5833 27.6667ZM47.5 58.9167C44.6181 58.9167 42.1618 57.9007 40.1313 55.8688C38.1007 53.8368 37.0847 51.3806 37.0833 48.5C37.0819 45.6194 38.0979 43.1632 40.1313 41.1313C42.1646 39.0993 44.6208 38.0833 47.5 38.0833C50.3792 38.0833 52.8361 39.0993 54.8708 41.1313C56.9056 43.1632 57.9208 45.6194 57.9167 48.5C57.9125 51.3806 56.8965 53.8375 54.8688 55.8708C52.841 57.9042 50.3847 58.9194 47.5 58.9167Z" fill="#12606A"/>
</svg>
